<svg xmlns="http://www.w3.org/2000/svg" xmlns:xlink="http://www.w3.org/1999/xlink"><defs><symbol viewBox="0 0 26 9" fill="none" id="icon-arrow-right">
<path d="M19.9899 4.5L-1.14441e-05 4.5" stroke="#003882" />
<path d="M26 4.5L19.25 8.39711L19.25 0.602886L26 4.5Z" fill="#003882" />
</symbol><symbol viewBox="0 0 9 15" fill="none" id="icon-arrow-right-small">
    <rect x="1.41422" y="14.1421" width="2" height="10" transform="rotate(-135 1.41422 14.1421)" fill="#003882" />
    <path d="M0.000152588 1.41406L1.41437 -0.000151277L8.48543 7.07092L7.07122 8.48513L0.000152588 1.41406Z" fill="#003882" />
</symbol><symbol viewBox="0 0 13 10" fill="none" id="icon-checkmarck">
<path d="M0.707107 5.24251C0.316583 4.85198 0.316582 4.21882 0.707107 3.82829C1.09763 3.43777 1.7308 3.43777 2.12132 3.82829L5.36396 7.07093C5.75449 7.46146 5.75449 8.09462 5.36396 8.48515C4.97344 8.87567 4.34027 8.87567 3.94975 8.48515L0.707107 5.24251Z" fill="#003882" />
<rect x="11.0208" width="2" height="11" rx="1" transform="rotate(45 11.0208 0)" fill="#003882" />
</symbol><symbol viewBox="0 0 18 18" fill="none" id="icon-eye">
<path d="M13 7C13 10.3137 10.3137 13 7 13C3.68629 13 1 10.3137 1 7C1 3.68629 3.68629 1 7 1C10.3137 1 13 3.68629 13 7Z" fill-opacity="0" stroke="#003882" stroke-width="2" />
<rect x="10" y="11.4142" width="2" height="8" rx="1" transform="rotate(-45 10 11.4142)" fill="#003882" />
</symbol><symbol viewBox="0 0 144.083 144" id="icon-facebook">
    <path d="M72.041,14.165c-31.94,0-57.833,25.894-57.833,57.834c0,31.939,25.893,57.836,57.833,57.836s57.835-25.896,57.835-57.836  C129.875,40.059,103.981,14.165,72.041,14.165z M91.792,51.16c0,0.552-0.447,1-1,1H76.713v7.567h14.078c0.553,0,1,0.448,1,1v14.077  c0,0.553-0.447,1-1,1H77.713v30.892c0,0.553-0.447,1-1,1H63.408c-0.553,0-1-0.447-1-1V75.805h-9.117c-0.553,0-1-0.447-1-1V60.728  c0-0.552,0.447-1,1-1h9.117V54.02c0-0.082,0.01-0.161,0.028-0.237c0.008-8.131,1.747-17.433,15.068-17.475  c0.029-0.002,0.06-0.004,0.09-0.004h13.197c0.553,0,1,0.448,1,1V51.16z" fill="#7F9BC0" />
</symbol><symbol viewBox="0 0 8 6" fill="none" id="icon-lang">
<path d="M3.99977 6L0.535663 -1.28846e-07L7.46387 4.76837e-07L3.99977 6Z" fill="#003882" />
</symbol><symbol viewBox="0 0 48 48" fill="none" id="icon-linkedin">
<path fill-rule="evenodd" clip-rule="evenodd" d="M0 24C0 10.7452 10.7452 0 24 0C37.2548 0 48 10.7452 48 24C48 37.2548 37.2548 48 24 48C10.7452 48 0 37.2548 0 24ZM16.9605 19.8778H11.5216V36.2196H16.9605V19.8778ZM17.3188 14.8227C17.2835 13.2204 16.1377 12 14.277 12C12.4164 12 11.2 13.2204 11.2 14.8227C11.2 16.3918 12.3805 17.6473 14.2064 17.6473H14.2412C16.1377 17.6473 17.3188 16.3918 17.3188 14.8227ZM36.5754 26.8497C36.5754 21.8303 33.8922 19.4941 30.3131 19.4941C27.4254 19.4941 26.1326 21.0802 25.4107 22.1929V19.8783H19.9711C20.0428 21.4117 19.9711 36.22 19.9711 36.22H25.4107V27.0934C25.4107 26.605 25.446 26.1178 25.5898 25.7681C25.9829 24.7924 26.8779 23.7822 28.3805 23.7822C30.3494 23.7822 31.1365 25.2807 31.1365 27.4767V36.2196H36.5752L36.5754 26.8497Z" fill="#7F9BC0" />
</symbol><symbol viewBox="0 0 32 37" fill="none" id="icon-map-point">
<path fill-rule="evenodd" clip-rule="evenodd" d="M19.0549 31.7087C26.4303 30.2828 32 23.7918 32 16C32 7.16344 24.8366 0 16 0C7.16344 0 0 7.16344 0 16C0 23.7918 5.56974 30.2828 12.9451 31.7087L16 37L19.0549 31.7087Z" fill="#167BFF" />
<circle cx="16" cy="16" r="4" fill="white" />
</symbol><symbol viewBox="0 0 250.579 250.579" id="icon-menu-burger">
<g id="icon-menu-burger_Menu">
	<path style="fill-rule:evenodd;clip-rule:evenodd;" d="M22.373,76.068h205.832c12.356,0,22.374-10.017,22.374-22.373
		c0-12.356-10.017-22.373-22.374-22.373H22.373C10.017,31.323,0,41.339,0,53.696C0,66.052,10.017,76.068,22.373,76.068z
		 M228.205,102.916H22.373C10.017,102.916,0,112.933,0,125.289c0,12.357,10.017,22.373,22.373,22.373h205.832
		c12.356,0,22.374-10.016,22.374-22.373C250.579,112.933,240.561,102.916,228.205,102.916z M228.205,174.51H22.373
		C10.017,174.51,0,184.526,0,196.883c0,12.356,10.017,22.373,22.373,22.373h205.832c12.356,0,22.374-10.017,22.374-22.373
		C250.579,184.526,240.561,174.51,228.205,174.51z" />
</g>

</symbol><symbol viewBox="0 0 141 27" fill="none" id="icon-swiper-button">
<path d="M119 13.981L0 13.981" stroke="white" stroke-width="2" />
<path d="M119 2.72277L138.5 13.9811L119 25.2394L119 2.72277Z" fill="" stroke="white" stroke-width="2" />
</symbol><symbol viewBox="0 0 512 512" id="icon-youtube">
    <g>
        <path d="M260.4,449c-57.1-1.8-111.4-3.2-165.7-5.3c-11.7-0.5-23.6-2.3-35-5c-21.4-5-36.2-17.9-43.8-39c-6.1-17-8.3-34.5-9.9-52.3   C2.5,305.6,2.5,263.8,4.2,222c1-23.6,1.6-47.4,7.9-70.3c3.8-13.7,8.4-27.1,19.5-37c11.7-10.5,25.4-16.8,41-17.5   c42.8-2.1,85.5-4.7,128.3-5.1c57.6-0.6,115.3,0.2,172.9,1.3c24.9,0.5,50,1.8,74.7,5c22.6,3,39.5,15.6,48.5,37.6   c6.9,16.9,9.5,34.6,11,52.6c3.9,45.1,4,90.2,1.8,135.3c-1.1,22.9-2.2,45.9-8.7,68.2c-7.4,25.6-23.1,42.5-49.3,48.3   c-10.2,2.2-20.8,3-31.2,3.4C366.2,445.7,311.9,447.4,260.4,449z M205.1,335.3c45.6-23.6,90.7-47,136.7-70.9   c-45.9-24-91-47.5-136.7-71.4C205.1,240.7,205.1,287.6,205.1,335.3z" fill="#7F9BC0" />
    </g>
</symbol></defs></svg>